<svg xmlns="http://www.w3.org/2000/svg" viewBox="0 0 53.48 124.86"><defs><style>.cls-1{isolation:isolate;}.cls-2{fill:#77560e;}.cls-3{fill:#6de86d;}.cls-4{fill:#0c7a12;}.cls-5{fill:#1cd12d;}.cls-6{mix-blend-mode:multiply;}.cls-7{fill:#999898;}.cls-8{fill:#d34e2f;}.cls-9{fill:#efb135;}.cls-10{fill:#efd643;}</style></defs><title>flower</title><g class="cls-1"><g id="Layer_2" data-name="Layer 2"><g id="Layer_1-2" data-name="Layer 1"><path class="cls-2" d="M17.5,124.86C22.23,121,23.57,111.23,25,105.3a57.94,57.94,0,0,0,2-16c0-1.2-1.39-1.8-1.2-3,.25-1.62,1.85-1.3,2.21-2.9,1.67-7.56-1-38.85.67-48.86,2.14,2,.45,23.36,3.85,27.38.95,1.12-.9,4.92-1,6.22-.17,3.91-.48,11.28-.6,14.49-.15,4.09-.84,10.75-.75,14.84.17,8.5,0,6.83.95,12.45.87,4.94.5,6.25,1.5,9.3s.89,4.31,3.82,5.61"/><path class="cls-3" d="M22.65,79.7h0a.13.13,0,0,1-.12-.13,22.51,22.51,0,0,1,.29-2.74c.09-.59.18-1.2.24-1.8a7.17,7.17,0,0,0-.69-4.35.13.13,0,0,1,.05-.17.12.12,0,0,1,.17,0,7.53,7.53,0,0,1,.72,4.51c-.06.6-.15,1.21-.24,1.81a22.06,22.06,0,0,0-.29,2.7A.13.13,0,0,1,22.65,79.7Z"/><path class="cls-4" d="M25.72,86.54a46.16,46.16,0,0,1-12.44-3.62C9.34,81,5.75,78.06,4.1,74.56c-2.93-6.18.71-12.24-1-18.54h0C6,59.54,8.88,61.1,13.23,63.23c3.68,1.79,7.8,3,10.82,5.65,2.69,2.35,4.29,5.58,4.11,8.51-.22,3.53-1.88,7.38-2.44,9.15Z"/><path class="cls-5" d="M25.66,85.47A46.21,46.21,0,0,1,13.19,82c-4-1.87-7.58-4.78-9.27-8.27-3-6.15.59-12.24-1.22-18.53h0c2.94,3.49,5.87,5,10.24,7.11,3.7,1.76,7.83,3,10.87,5.55,2.72,2.32,4.35,5.53,4.2,8.46-.19,3.54-1.81,7.41-2.35,9.18Z"/><path class="cls-3" d="M24.56,82.79a.14.14,0,0,1-.12-.1c-.5-2-2.29-3.26-3.88-4.42-4.34-3.16-8.69-6.76-11.16-11.65-.26-.52-.51-1.07-.75-1.59a12,12,0,0,0-3.1-4.73.12.12,0,0,1,0-.17.12.12,0,0,1,.18,0,12.14,12.14,0,0,1,3.18,4.81c.24.53.49,1.07.75,1.59,2.44,4.84,6.77,8.42,11.08,11.56,1.62,1.18,3.45,2.52,4,4.56a.13.13,0,0,1-.1.15Z"/><path class="cls-3" d="M16.1,74.56a.12.12,0,0,1-.12-.1A11.71,11.71,0,0,1,15.85,72a8.08,8.08,0,0,0-.34-3.2c-.11-.27-.25-.54-.39-.81a4.18,4.18,0,0,1-.61-1.71.12.12,0,0,1,.12-.13.12.12,0,0,1,.13.12,4,4,0,0,0,.58,1.61,7.93,7.93,0,0,1,.4.83A8.18,8.18,0,0,1,16.1,72a12.54,12.54,0,0,0,.12,2.45.13.13,0,0,1-.09.15Z"/><path class="cls-3" d="M11.91,70.66l-.07,0a1.59,1.59,0,0,0-1.11-.14l-.25,0a7,7,0,0,1-4.35-1.6,6.16,6.16,0,0,1-1.45-1.27,2.52,2.52,0,0,1-.58-1.86.13.13,0,0,1,.14-.11.12.12,0,0,1,.1.14,2.32,2.32,0,0,0,.53,1.68,6.16,6.16,0,0,0,1.4,1.21,6.82,6.82,0,0,0,4.19,1.56l.24,0a1.86,1.86,0,0,1,1.29.18.14.14,0,0,1,0,.18A.16.16,0,0,1,11.91,70.66Z"/><path class="cls-3" d="M16.73,78h-.21a16,16,0,0,1-3.38-.31,17.17,17.17,0,0,1-1.76-.56,10.69,10.69,0,0,0-2.53-.7.12.12,0,0,1-.11-.13.13.13,0,0,1,.13-.12,11.64,11.64,0,0,1,2.6.71,14.55,14.55,0,0,0,1.73.56,16,16,0,0,0,3.32.3A2.81,2.81,0,0,0,19,77a.12.12,0,0,1,.17,0,.13.13,0,0,1,0,.17A2.84,2.84,0,0,1,16.73,78Z"/><path class="cls-4" d="M32.41,62.39a21.15,21.15,0,0,0,7.91-.71,14.51,14.51,0,0,0,7.32-5.15c3.25-4.5,2.8-10.08,5.42-14.9h0a17.18,17.18,0,0,1-7.57,4c-2.53.8-5.16,1.07-7.53,2.66a11.4,11.4,0,0,0-4.52,6.18,44.45,44.45,0,0,0-1,7.88Z"/><path class="cls-5" d="M32.73,61.53a20.75,20.75,0,0,0,7.89-.61A14.28,14.28,0,0,0,48,55.87C51.24,51.4,50.83,45.8,53.48,41h0A17,17,0,0,1,45.9,45c-2.53.77-5.16,1-7.54,2.57a11.34,11.34,0,0,0-4.55,6.13,44.21,44.21,0,0,0-1.08,7.88Z"/><path class="cls-3" d="M34.07,59.57H34a.13.13,0,0,1,0-.17,7.6,7.6,0,0,1,3.42-3A27.55,27.55,0,0,0,46.6,49c.28-.37.55-.77.82-1.15a11.6,11.6,0,0,1,3-3.36.12.12,0,0,1,.17.05.12.12,0,0,1,0,.17,11.32,11.32,0,0,0-3,3.28c-.27.38-.55.78-.83,1.16a27.8,27.8,0,0,1-9.3,7.48,7.38,7.38,0,0,0-3.32,2.9A.11.11,0,0,1,34.07,59.57Z"/><path class="cls-3" d="M41,54.4H40.9a.13.13,0,0,1-.06-.17,13.31,13.31,0,0,0,.71-2,10.67,10.67,0,0,1,1.06-2.61c.14-.21.29-.41.44-.6a4.61,4.61,0,0,0,.75-1.21.12.12,0,0,1,.16-.08.12.12,0,0,1,.07.16,4.35,4.35,0,0,1-.78,1.28c-.14.19-.3.38-.43.59a10.17,10.17,0,0,0-1,2.54,14.26,14.26,0,0,1-.72,2A.14.14,0,0,1,41,54.4Z"/><path class="cls-3" d="M45.88,52.27a1.9,1.9,0,0,1-.77-.16.84.84,0,0,1-.14-.06c-.21-.1-.4-.19-.59-.09a.12.12,0,0,1-.17-.05.11.11,0,0,1,0-.17.82.82,0,0,1,.82.09l.13.06a3.34,3.34,0,0,0,2.69-.52,4.57,4.57,0,0,0,1.1-.73,2.64,2.64,0,0,0,.73-1.28.12.12,0,0,1,.15-.09.12.12,0,0,1,.1.14,2.93,2.93,0,0,1-.81,1.41,5,5,0,0,1-1.15.77A5,5,0,0,1,45.88,52.27Z"/><path class="cls-3" d="M41.7,57.45a6.68,6.68,0,0,1-1.9-.36c-.59-.17-1.21-.45-1.31-1.22a.13.13,0,0,1,.25,0c.08.64.59.87,1.13,1a6.54,6.54,0,0,0,1.91.35,8.64,8.64,0,0,0,1.11-.14A4.9,4.9,0,0,1,44.55,57a.13.13,0,0,1,0,.25,4.79,4.79,0,0,0-1.58.11,8.66,8.66,0,0,1-1.14.14Z"/><g class="cls-6"><path class="cls-7" d="M28.44,39.5A21.48,21.48,0,0,0,34.71,48a3.42,3.42,0,0,0,2.46,1,3.62,3.62,0,0,0,1.62-.79c3.14-2.27,6.28-4.66,8.49-7.83s3.39-7.3,2.21-11a3,3,0,0,0-1-1.63,3.57,3.57,0,0,0-1.32-.45l-14-2.85a13.15,13.15,0,0,0-3.24-.37C21,24.57,26.61,35,28.44,39.5Z"/><path class="cls-7" d="M39.05,22.88a21.43,21.43,0,0,0,9.08-5.39,3.41,3.41,0,0,0,1.26-2.34,3.57,3.57,0,0,0-.63-1.69c-1.93-3.35-4-6.71-6.94-9.23S34.9.13,31.12.93a3,3,0,0,0-1.73.87,3.38,3.38,0,0,0-.58,1.26l-4.24,13.7a12.93,12.93,0,0,0-.7,3.18C23.44,28.8,34.36,24.26,39.05,22.88Z"/><path class="cls-7" d="M20.35,10.53a21.43,21.43,0,0,0-7.47-7.46,3.43,3.43,0,0,0-2.59-.65,3.85,3.85,0,0,0-1.48,1C6.05,6.16,3.3,9,1.59,12.46s-2.26,7.73-.54,11.19a2.94,2.94,0,0,0,1.27,1.46,3.49,3.49,0,0,0,1.36.25L18,26.07A12.7,12.7,0,0,0,21.26,26C29.94,24.18,22.84,14.73,20.35,10.53Z"/><path class="cls-7" d="M11.11,30a21.39,21.39,0,0,0-7.81,7.1,3.42,3.42,0,0,0-.76,2.55,3.62,3.62,0,0,0,1,1.53c2.57,2.89,5.27,5.77,8.66,7.65s7.6,2.62,11.15,1.07a3,3,0,0,0,1.52-1.19,3.46,3.46,0,0,0,.31-1.35l1.4-14.27a12.79,12.79,0,0,0,0-3.27C25.21,21.11,15.43,27.75,11.11,30Z"/></g><path class="cls-8" d="M29.16,38.78a21.48,21.48,0,0,0,6.27,8.5,3.42,3.42,0,0,0,2.46,1,3.62,3.62,0,0,0,1.62-.79c3.14-2.27,6.28-4.66,8.49-7.83s3.39-7.3,2.21-11a3,3,0,0,0-1-1.63,3.57,3.57,0,0,0-1.32-.45l-14-2.85a13.15,13.15,0,0,0-3.24-.37C21.72,23.85,27.33,34.25,29.16,38.78Z"/><path class="cls-8" d="M39.77,22.16a21.43,21.43,0,0,0,9.08-5.39,3.41,3.41,0,0,0,1.26-2.34,3.57,3.57,0,0,0-.63-1.69c-1.93-3.35-4-6.71-6.94-9.23S35.62-.59,31.84.21a3,3,0,0,0-1.73.87,3.38,3.38,0,0,0-.58,1.26L25.29,16a12.93,12.93,0,0,0-.7,3.18C24.16,28.08,35.08,23.54,39.77,22.16Z"/><path class="cls-8" d="M21.07,9.81A21.43,21.43,0,0,0,13.6,2.35,3.43,3.43,0,0,0,11,1.7a3.85,3.85,0,0,0-1.48,1C6.77,5.44,4,8.27,2.31,11.74S.05,19.47,1.77,22.93A2.94,2.94,0,0,0,3,24.39a3.49,3.49,0,0,0,1.36.25l14.32.71A12.7,12.7,0,0,0,22,25.24C30.66,23.46,23.56,14,21.07,9.81Z"/><path class="cls-8" d="M11.83,29.32A21.39,21.39,0,0,0,4,36.42,3.42,3.42,0,0,0,3.26,39a3.62,3.62,0,0,0,1,1.53c2.57,2.89,5.27,5.77,8.66,7.65s7.6,2.62,11.15,1.07A3,3,0,0,0,25.54,48a3.46,3.46,0,0,0,.31-1.35l1.4-14.27a12.79,12.79,0,0,0,0-3.27C25.93,20.39,16.15,27,11.83,29.32Z"/><ellipse class="cls-9" cx="26.66" cy="25.03" rx="7.48" ry="6.87" transform="translate(-9.81 22.35) rotate(-38.99)"/><ellipse class="cls-10" cx="25.66" cy="24.03" rx="7.48" ry="6.87" transform="translate(-9.4 21.5) rotate(-38.99)"/></g></g></g></svg>